<svg xmlns="http://www.w3.org/2000/svg" xmlns:xlink="http://www.w3.org/1999/xlink" width="125" height="125" viewBox="0 0 125 125">
  <defs>
    <linearGradient id="linear-gradient" x1="-0.47" y1="-0.466" x2="1.161" y2="1.202" gradientUnits="objectBoundingBox">
      <stop offset="0" stop-color="#03308c"/>
      <stop offset="0.522" stop-color="#004ea8"/>
      <stop offset="1" stop-color="#03308c"/>
    </linearGradient>
  </defs>
  <path id="message" d="M30.292,42.749A7.618,7.618,0,1,0,35.784,44.9,7.589,7.589,0,0,0,30.292,42.749Zm0,11.718a3.692,3.692,0,1,1,3.9-3.687,3.729,3.729,0,0,1-3.9,3.687ZM61.485,42.749A7.618,7.618,0,1,0,66.976,44.9a7.589,7.589,0,0,0-5.492-2.155Zm0,11.718a3.692,3.692,0,1,1,3.9-3.687,3.729,3.729,0,0,1-3.9,3.687ZM92.677,42.749A7.618,7.618,0,1,0,98.169,44.9a7.589,7.589,0,0,0-5.491-2.155Zm0,11.718a3.692,3.692,0,1,1,3.9-3.687,3.729,3.729,0,0,1-3.9,3.687ZM108.273,0H14.7A15.6,15.6,0,0,0-.9,15.4V85.5a15.454,15.454,0,0,0,15.6,15.4H38.09v20.288c0,2.588,1.657,3.808,3.192,3.808a2.856,2.856,0,0,0,1.693-.567l30.437-22.876H108.5a15.6,15.6,0,0,0,15.6-15.4V15.4A15.814,15.814,0,0,0,108.273,0Zm11.7,85.718a11.536,11.536,0,0,1-11.7,11.5H71.89L41.989,119.7V97.219H14.7A11.675,11.675,0,0,1,3,85.718V15.625a11.536,11.536,0,0,1,11.7-11.5h93.576a11.675,11.675,0,0,1,11.7,11.5Z" transform="translate(0.9)" fill="url(#linear-gradient)"/>
</svg>
