<?xml version="1.0" encoding="UTF-8" standalone="no"?>
<!-- Created with Inkscape (http://www.inkscape.org/) -->

<svg
   version="1.1"
   id="svg99"
   xml:space="preserve"
   width="569.18536"
   height="123.96941"
   viewBox="0 0 569.18536 123.96941"
   sodipodi:docname="Waev White.svg"
   inkscape:version="1.1.2 (b8e25be833, 2022-02-05)"
   xmlns:inkscape="http://www.inkscape.org/namespaces/inkscape"
   xmlns:sodipodi="http://sodipodi.sourceforge.net/DTD/sodipodi-0.dtd"
   xmlns="http://www.w3.org/2000/svg"
   xmlns:svg="http://www.w3.org/2000/svg"><defs
     id="defs103"><clipPath
       clipPathUnits="userSpaceOnUse"
       id="clipPath113"><path
         d="M 0,672.889 H 900 V 0 H 0 Z"
         id="path111" /></clipPath></defs><sodipodi:namedview
     id="namedview101"
     pagecolor="#ffffff"
     bordercolor="#666666"
     borderopacity="1.0"
     inkscape:pageshadow="2"
     inkscape:pageopacity="0.0"
     inkscape:pagecheckerboard="true"
     showgrid="false"
     fit-margin-top="0"
     fit-margin-left="0"
     fit-margin-right="0"
     fit-margin-bottom="0"
     inkscape:zoom="1.77"
     inkscape:cx="270.33898"
     inkscape:cy="149.43503"
     inkscape:window-width="2560"
     inkscape:window-height="1370"
     inkscape:window-x="-6"
     inkscape:window-y="-6"
     inkscape:window-maximized="1"
     inkscape:current-layer="g109" /><g
     id="g105"
     inkscape:groupmode="layer"
     inkscape:label="Wæv"
     transform="matrix(1.3333333,0,0,-1.3333333,-315.40703,510.57714)"><g
       id="g107"><g
         id="g109"
         clip-path="url(#clipPath113)"><g
           id="g115"
           transform="translate(385.7444,382.2188)"
           style="fill:#ffffff;fill-opacity:1"><path
             d="m 0,0 c -3.463,1.802 -7.549,0.077 -9.155,-3.865 0,0.001 -27.825,-68.144 -27.825,-68.144 l -27.099,64.888 c -0.831,1.891 -2.033,3.31 -3.614,4.258 -1.581,0.944 -3.161,1.419 -4.742,1.419 -1.657,0 -3.257,-0.475 -4.799,-1.419 -1.543,-0.948 -2.806,-2.409 -3.783,-4.387 l -26.873,-64.759 -28.08,67.997 c -1.674,4.058 -5.958,5.722 -9.449,3.672 v 0 c -3.309,-1.942 -4.689,-6.519 -3.129,-10.377 l 30.721,-75.741 c 0.829,-1.98 1.994,-3.442 3.501,-4.387 1.506,-0.944 3.501,-1.418 5.985,-1.418 4.365,0 7.376,1.847 9.033,5.547 l 26.986,65.018 26.309,-65.018 c 1.731,-3.529 4.742,-5.289 9.033,-5.289 4.44,0 7.488,1.976 9.145,5.933 V -86.2 L 3.396,-10.583 C 5.044,-6.591 3.517,-1.829 0,0"
             style="fill:#ffffff;fill-opacity:1;fill-rule:nonzero;stroke:none"
             id="path117" /></g><g
           id="g119"
           transform="translate(569.6068,371.547)"
           style="fill:#ffffff;fill-opacity:1"><path
             d="m 0,0 c -1.803,3.69 -0.491,8.22 3.111,10.232 3.604,1.847 8.191,0.505 9.992,-3.186 L 46.518,-60.562 79.931,7.046 c 1.801,3.691 6.388,5.033 9.992,3.186 C 93.525,8.22 94.836,3.69 93.034,0 L 54.379,-76.499 c -1.474,-2.853 -4.423,-4.698 -7.861,-4.698 -3.44,0 -6.389,1.845 -7.863,4.698 z"
             style="fill:#ffffff;fill-opacity:1;fill-rule:nonzero;stroke:none"
             id="path121" /></g><g
           id="g123"
           transform="translate(555.6411,307.4845)"
           style="fill:#ffffff;fill-opacity:1"><path
             d="m 0,0 h -44.911 c -15.854,0 -26.985,11.3 -26.985,26.815 v 6.073 c 0,15.515 11.131,26.817 26.985,26.817 h 25.468 c 7.757,0 12.817,-5.229 12.817,-11.47 0,-6.24 -5.06,-11.3 -12.817,-11.3 H -51.32 c -4.048,0 -7.422,-3.373 -7.422,-7.421 0,-4.048 3.374,-7.42 7.422,-7.42 h 31.877 c 16.865,0 27.997,11.637 27.997,26.141 0,14.505 -11.132,26.31 -27.997,26.31 h -25.805 c -13.662,0 -24.962,-5.565 -32.214,-14.503 -5.734,8.769 -15.517,14.503 -27.323,14.503 h -45.886 c -4.048,0 -7.42,-3.372 -7.42,-7.42 0,-4.048 3.372,-7.42 7.42,-7.42 h 45.886 c 10.795,0 17.878,-7.591 17.878,-18.216 V 12.311 C -86.907,5.903 -91.798,0 -98.882,0 h -36.767 c -7.083,0 -11.975,5.903 -11.975,12.311 0,6.241 4.892,12.143 11.975,12.143 h 32.045 c 4.048,0 7.42,3.374 7.42,7.421 0,4.048 -3.372,7.422 -7.42,7.422 h -32.045 c -16.023,0 -27.154,-12.312 -27.154,-26.986 0,-14.673 11.131,-27.153 27.154,-27.153 h 36.767 c 10.289,0 18.384,5.06 22.938,12.649 7.251,-7.927 17.877,-12.649 30.696,-12.649 H 0 c 4.048,0 7.422,3.373 7.422,7.42 C 7.422,-3.374 4.048,0 0,0"
             style="fill:#ffffff;fill-opacity:1;fill-rule:nonzero;stroke:none"
             id="path125" /></g></g></g></g></svg>
